<svg xmlns="http://www.w3.org/2000/svg" xmlns:xlink="http://www.w3.org/1999/xlink" width="2000" zoomAndPan="magnify" viewBox="0 0 1500 1499.999933" height="2000" preserveAspectRatio="xMidYMid meet" version="1.0"><defs><g/><clipPath id="34fe617bd2"><path d="M 0 264.546875 L 1500 264.546875 L 1500 1235.796875 L 0 1235.796875 Z M 0 264.546875 " clip-rule="nonzero"/></clipPath><clipPath id="447f1f00c6"><path d="M 176 970 L 1148 970 L 1148 1235.796875 L 176 1235.796875 Z M 176 970 " clip-rule="nonzero"/></clipPath><clipPath id="bcf36670df"><path d="M 705 264.546875 L 795 264.546875 L 795 530 L 705 530 Z M 705 264.546875 " clip-rule="nonzero"/></clipPath><clipPath id="ac9e17779c"><path d="M 1235 264.546875 L 1324 264.546875 L 1324 353 L 1235 353 Z M 1235 264.546875 " clip-rule="nonzero"/></clipPath><clipPath id="6daff44cc4"><rect x="0" width="1226" y="0" height="281"/></clipPath><clipPath id="c44cc66e5e"><rect x="0" width="898" y="0" height="341"/></clipPath></defs><g clip-path="url(#34fe617bd2)"><path fill="#ffbbea" d="M 1411.765625 529.503906 L 1411.765625 264.699219 L 1235.292969 264.699219 L 1235.292969 352.96875 L 1147.058594 352.96875 L 1147.058594 441.234375 L 970.589844 441.234375 L 970.589844 352.96875 L 882.351562 352.96875 L 882.351562 264.699219 L 705.882812 264.699219 L 705.882812 529.503906 L 617.648438 529.503906 L 617.648438 706.035156 L 705.882812 706.035156 L 705.882812 794.304688 L 441.175781 794.304688 L 441.175781 882.570312 L 352.941406 882.570312 L 352.941406 970.839844 L 264.707031 970.839844 L 264.707031 794.304688 L 352.941406 794.304688 L 352.941406 706.035156 L 441.175781 706.035156 L 441.175781 617.769531 L 352.941406 617.769531 L 352.941406 529.503906 L 176.46875 529.503906 L 176.46875 617.769531 L 88.234375 617.769531 L 88.234375 706.035156 L 0 706.035156 L 0 1059.105469 L 88.234375 1059.105469 L 88.234375 1147.371094 L 176.46875 1147.371094 L 176.46875 1235.640625 L 1147.058594 1235.640625 L 1147.058594 1147.371094 L 1235.292969 1147.371094 L 1235.292969 1059.105469 L 1147.058594 1059.105469 L 1147.058594 970.839844 L 1235.292969 970.839844 L 1235.292969 882.570312 L 1323.53125 882.570312 L 1323.53125 794.304688 L 1411.765625 794.304688 L 1411.765625 706.035156 L 1500 706.035156 L 1500 529.503906 Z M 1411.765625 529.503906 " fill-opacity="1" fill-rule="nonzero"/></g><path fill="#57bbff" d="M 529.410156 970.839844 L 705.882812 970.839844 L 705.882812 1059.105469 L 529.410156 1059.105469 Z M 529.410156 970.839844 " fill-opacity="1" fill-rule="nonzero"/><path fill="#57bbff" d="M 705.882812 1059.105469 L 794.117188 1059.105469 L 794.117188 1147.371094 L 705.882812 1147.371094 Z M 705.882812 1059.105469 " fill-opacity="1" fill-rule="nonzero"/><path fill="#57bbff" d="M 176.46875 529.503906 L 352.941406 529.503906 L 352.941406 617.769531 L 176.46875 617.769531 Z M 176.46875 529.503906 " fill-opacity="1" fill-rule="nonzero"/><path fill="#57bbff" d="M 352.941406 617.769531 L 441.175781 617.769531 L 441.175781 706.035156 L 352.941406 706.035156 Z M 352.941406 617.769531 " fill-opacity="1" fill-rule="nonzero"/><path fill="#57bbff" d="M 1147.058594 1059.105469 L 1235.292969 1059.105469 L 1235.292969 1147.371094 L 1147.058594 1147.371094 Z M 1147.058594 1059.105469 " fill-opacity="1" fill-rule="nonzero"/><path fill="#e24795" d="M 882.351562 706.035156 L 970.589844 706.035156 L 970.589844 794.304688 L 882.351562 794.304688 Z M 882.351562 706.035156 " fill-opacity="1" fill-rule="nonzero"/><path fill="#e24795" d="M 1147.058594 706.035156 L 1235.292969 706.035156 L 1235.292969 794.304688 L 1147.058594 794.304688 Z M 1147.058594 706.035156 " fill-opacity="1" fill-rule="nonzero"/><path fill="#5211ba" d="M 882.351562 617.769531 L 970.589844 617.769531 L 970.589844 706.035156 L 882.351562 706.035156 Z M 882.351562 617.769531 " fill-opacity="1" fill-rule="nonzero"/><path fill="#5211ba" d="M 1147.058594 617.769531 L 1235.292969 617.769531 L 1235.292969 706.035156 L 1147.058594 706.035156 Z M 1147.058594 617.769531 " fill-opacity="1" fill-rule="nonzero"/><path fill="#5211ba" d="M 705.882812 706.035156 L 794.117188 706.035156 L 794.117188 794.304688 L 705.882812 794.304688 Z M 705.882812 706.035156 " fill-opacity="1" fill-rule="nonzero"/><path fill="#5211ba" d="M 794.117188 794.304688 L 882.351562 794.304688 L 882.351562 882.570312 L 794.117188 882.570312 Z M 794.117188 794.304688 " fill-opacity="1" fill-rule="nonzero"/><path fill="#5211ba" d="M 882.351562 882.570312 L 1235.292969 882.570312 L 1235.292969 970.839844 L 882.351562 970.839844 Z M 882.351562 882.570312 " fill-opacity="1" fill-rule="nonzero"/><g clip-path="url(#447f1f00c6)"><path fill="#5211ba" d="M 352.941406 970.839844 L 264.707031 970.839844 L 264.707031 1147.371094 L 176.46875 1147.371094 L 176.46875 1235.640625 L 1147.058594 1235.640625 L 1147.058594 1147.371094 L 352.941406 1147.371094 Z M 352.941406 970.839844 " fill-opacity="1" fill-rule="nonzero"/></g><path fill="#5211ba" d="M 1235.292969 794.304688 L 1323.53125 794.304688 L 1323.53125 882.570312 L 1235.292969 882.570312 Z M 1235.292969 794.304688 " fill-opacity="1" fill-rule="nonzero"/><path fill="#5211ba" d="M 1323.53125 706.035156 L 1411.765625 706.035156 L 1411.765625 794.304688 L 1323.53125 794.304688 Z M 1323.53125 706.035156 " fill-opacity="1" fill-rule="nonzero"/><path fill="#9f8fff" d="M 441.175781 882.570312 L 352.941406 882.570312 L 352.941406 1147.371094 L 705.882812 1147.371094 L 705.882812 1059.105469 L 441.175781 1059.105469 Z M 441.175781 882.570312 " fill-opacity="1" fill-rule="nonzero"/><path fill="#9f8fff" d="M 176.46875 970.839844 L 88.234375 970.839844 L 88.234375 882.570312 L 176.46875 882.570312 L 176.46875 794.304688 L 88.234375 794.304688 L 88.234375 706.035156 L 0 706.035156 L 0 1059.105469 L 88.234375 1059.105469 L 88.234375 1147.371094 L 264.707031 1147.371094 L 264.707031 1059.105469 L 176.46875 1059.105469 Z M 176.46875 970.839844 " fill-opacity="1" fill-rule="nonzero"/><path fill="#9f8fff" d="M 88.234375 617.769531 L 176.46875 617.769531 L 176.46875 706.035156 L 88.234375 706.035156 Z M 88.234375 617.769531 " fill-opacity="1" fill-rule="nonzero"/><path fill="#9f8fff" d="M 264.707031 706.035156 L 352.941406 706.035156 L 352.941406 794.304688 L 264.707031 794.304688 Z M 264.707031 706.035156 " fill-opacity="1" fill-rule="nonzero"/><path fill="#9f8fff" d="M 794.117188 706.035156 L 882.351562 706.035156 L 882.351562 794.304688 L 794.117188 794.304688 Z M 794.117188 706.035156 " fill-opacity="1" fill-rule="nonzero"/><path fill="#9f8fff" d="M 1235.292969 706.035156 L 1323.53125 706.035156 L 1323.53125 794.304688 L 1235.292969 794.304688 Z M 1235.292969 706.035156 " fill-opacity="1" fill-rule="nonzero"/><path fill="#9f8fff" d="M 882.351562 794.304688 L 1235.292969 794.304688 L 1235.292969 882.570312 L 882.351562 882.570312 Z M 882.351562 794.304688 " fill-opacity="1" fill-rule="nonzero"/><path fill="#9f8fff" d="M 705.882812 617.769531 L 705.882812 529.503906 L 617.648438 529.503906 L 617.648438 706.035156 L 794.117188 706.035156 L 794.117188 617.769531 Z M 705.882812 617.769531 " fill-opacity="1" fill-rule="nonzero"/><g clip-path="url(#bcf36670df)"><path fill="#9f8fff" d="M 705.882812 264.699219 L 794.117188 264.699219 L 794.117188 529.503906 L 705.882812 529.503906 Z M 705.882812 264.699219 " fill-opacity="1" fill-rule="nonzero"/></g><path fill="#9f8fff" d="M 1147.058594 352.96875 L 1235.292969 352.96875 L 1235.292969 441.234375 L 1147.058594 441.234375 Z M 1147.058594 352.96875 " fill-opacity="1" fill-rule="nonzero"/><g clip-path="url(#ac9e17779c)"><path fill="#9f8fff" d="M 1235.292969 264.699219 L 1323.53125 264.699219 L 1323.53125 352.96875 L 1235.292969 352.96875 Z M 1235.292969 264.699219 " fill-opacity="1" fill-rule="nonzero"/></g><path fill="#9f8fff" d="M 1058.824219 970.839844 L 1147.058594 970.839844 L 1147.058594 1147.371094 L 1058.824219 1147.371094 Z M 1058.824219 970.839844 " fill-opacity="1" fill-rule="nonzero"/><path fill="#57bbff" d="M 1147.058594 352.96875 L 1235.292969 352.96875 L 1235.292969 441.234375 L 1147.058594 441.234375 Z M 1147.058594 352.96875 " fill-opacity="1" fill-rule="nonzero"/><path fill="#57bbff" d="M 1411.765625 529.503906 L 1500 529.503906 L 1500 706.035156 L 1411.765625 706.035156 Z M 1411.765625 529.503906 " fill-opacity="1" fill-rule="nonzero"/><g transform="matrix(1, 0, 0, 1, 137, 0.000000000000112861)"><g clip-path="url(#6daff44cc4)"><g fill="#5211ba" fill-opacity="1"><g transform="translate(0.636918, 209.208012)"><g><path d="M 85.65625 -94.671875 L 104.328125 -94.671875 L 104.328125 -113.34375 L 67.625 -113.34375 L 67.625 -94.671875 Z M 29.40625 -18.890625 L 29.40625 -132.453125 L 10.734375 -132.453125 L 10.734375 -151.5625 L 123.65625 -151.5625 L 123.65625 -132.671875 L 142.546875 -132.671875 L 142.546875 -75.5625 L 123.65625 -75.5625 L 123.65625 -56.890625 L 67.625 -56.890625 L 67.625 0 L 29.40625 0 Z M 29.40625 -18.890625 "/></g></g></g><g fill="#5211ba" fill-opacity="1"><g transform="translate(159.496847, 209.208012)"><g><path d="M 16.75 -18.890625 L 16.75 -38 L 54.09375 -38 L 54.09375 -113.34375 L 16.75 -113.34375 L 16.75 -151.5625 L 129.65625 -151.5625 L 129.65625 -113.34375 L 92.3125 -113.34375 L 92.3125 -38 L 129.65625 -38 L 129.65625 0 L 16.75 0 Z M 16.75 -18.890625 "/></g></g></g><g fill="#5211ba" fill-opacity="1"><g transform="translate(304.402864, 209.208012)"><g><path d="M 18.890625 -19.109375 L 36.5 -19.109375 L 36.5 -38 L 55.171875 -38 L 55.171875 -57.109375 L 74.0625 -57.109375 L 74.0625 -94.453125 L 55.171875 -94.453125 L 55.171875 -113.34375 L 36.5 -113.34375 L 36.5 -132.453125 L 18.46875 -132.453125 L 18.46875 -151.5625 L 55.8125 -151.5625 L 55.8125 -132.671875 L 74.703125 -132.671875 L 74.703125 -113.5625 L 93.375 -113.5625 L 93.375 -94.671875 L 111.421875 -94.671875 L 111.421875 -113.5625 L 130.09375 -113.5625 L 130.09375 -132.671875 L 148.984375 -132.671875 L 148.984375 -151.5625 L 186.984375 -151.5625 L 186.984375 -132.453125 L 168.515625 -132.453125 L 168.515625 -113.34375 L 149.625 -113.34375 L 149.625 -94.453125 L 130.734375 -94.453125 L 130.734375 -57.109375 L 149.625 -57.109375 L 149.625 -38 L 168.515625 -38 L 168.515625 -19.109375 L 186.984375 -19.109375 L 186.984375 0 L 148.984375 0 L 148.984375 -18.890625 L 130.09375 -18.890625 L 130.09375 -37.78125 L 111.421875 -37.78125 L 111.421875 -56.890625 L 93.375 -56.890625 L 93.375 -37.78125 L 74.703125 -37.78125 L 74.703125 -18.890625 L 55.8125 -18.890625 L 55.8125 0 L 18.890625 0 Z M 18.890625 -19.109375 "/></g></g></g><g fill="#5211ba" fill-opacity="1"><g transform="translate(508.130006, 209.208012)"><g><path d="M 35.84375 -18.890625 L 17.171875 -18.890625 L 17.171875 -132.671875 L 35.84375 -132.671875 L 35.84375 -151.5625 L 130.09375 -151.5625 L 130.09375 -113.34375 L 55.390625 -113.34375 L 55.390625 -94.671875 L 130.09375 -94.671875 L 130.09375 -56.890625 L 55.390625 -56.890625 L 55.390625 -38 L 130.09375 -38 L 130.09375 0 L 35.84375 0 Z M 35.84375 -18.890625 "/></g></g><g transform="translate(654.109418, 209.208012)"><g><path d="M 16.3125 -18.890625 L 16.3125 -151.5625 L 54.53125 -151.5625 L 54.53125 -38 L 128.796875 -38 L 128.796875 0 L 16.3125 0 Z M 16.3125 -18.890625 "/></g></g></g><g fill="#5211ba" fill-opacity="1"><g transform="translate(796.868668, 209.208012)"><g/></g></g><g fill="#5211ba" fill-opacity="1"><g transform="translate(915.15488, 209.208012)"><g><path d="M 14.8125 -18.890625 L 14.8125 -151.5625 L 53.03125 -151.5625 L 53.03125 -113.5625 L 71.703125 -113.5625 L 71.703125 -94.671875 L 90.375 -94.671875 L 90.375 -76 L 108.40625 -76 L 108.40625 -151.5625 L 146.625 -151.5625 L 146.625 0 L 108.40625 0 L 108.40625 -37.78125 L 89.734375 -37.78125 L 89.734375 -56.890625 L 71.0625 -56.890625 L 71.0625 -75.5625 L 53.03125 -75.5625 L 53.03125 0 L 14.8125 0 Z M 14.8125 -18.890625 "/></g></g></g><g fill="#5211ba" fill-opacity="1"><g transform="translate(1078.523007, 209.208012)"><g><path d="M 73.421875 -38 L 92.09375 -38 L 92.09375 -113.34375 L 55.390625 -113.34375 L 55.390625 -38 Z M 35.84375 -18.890625 L 17.171875 -18.890625 L 17.171875 -132.671875 L 35.84375 -132.671875 L 35.84375 -151.5625 L 111.625 -151.5625 L 111.625 -132.671875 L 130.09375 -132.671875 L 130.09375 -18.890625 L 111.625 -18.890625 L 111.625 0 L 35.84375 0 Z M 35.84375 -18.890625 "/></g></g></g></g></g><g transform="matrix(1, 0, 0, 1, 301, 1159)"><g clip-path="url(#c44cc66e5e)"><g fill="#5211ba" fill-opacity="1"><g transform="translate(1.507055, 276.54337)"><g><path d="M 18.03125 -18.890625 L 18.03125 -151.5625 L 56.25 -151.5625 L 56.25 -94.671875 L 74.28125 -94.671875 L 74.28125 -113.5625 L 92.953125 -113.5625 L 92.953125 -132.671875 L 111.625 -132.671875 L 111.625 -151.5625 L 149.84375 -151.5625 L 149.84375 -132.453125 L 130.953125 -132.453125 L 130.953125 -113.34375 L 112.484375 -113.34375 L 112.484375 -94.453125 L 93.59375 -94.453125 L 93.59375 -57.109375 L 112.484375 -57.109375 L 112.484375 -38 L 130.953125 -38 L 130.953125 -19.109375 L 149.84375 -19.109375 L 149.84375 0 L 111.625 0 L 111.625 -18.890625 L 92.953125 -18.890625 L 92.953125 -37.78125 L 74.28125 -37.78125 L 74.28125 -56.890625 L 56.25 -56.890625 L 56.25 0 L 18.03125 0 Z M 18.03125 -18.890625 "/></g></g></g><g fill="#5211ba" fill-opacity="1"><g transform="translate(166.592578, 276.54337)"><g><path d="M 16.75 -18.890625 L 16.75 -38 L 54.09375 -38 L 54.09375 -113.34375 L 16.75 -113.34375 L 16.75 -151.5625 L 129.65625 -151.5625 L 129.65625 -113.34375 L 92.3125 -113.34375 L 92.3125 -38 L 129.65625 -38 L 129.65625 0 L 16.75 0 Z M 16.75 -18.890625 "/></g></g></g><g fill="#5211ba" fill-opacity="1"><g transform="translate(311.498596, 276.54337)"><g><path d="M 16.3125 -18.890625 L 16.3125 -38 L 72.5625 -38 L 72.5625 -56.890625 L 16.3125 -56.890625 L 16.3125 -132.671875 L 34.984375 -132.671875 L 34.984375 -151.5625 L 110.765625 -151.5625 L 110.765625 -113.34375 L 54.53125 -113.34375 L 54.53125 -94.671875 L 110.765625 -94.671875 L 110.765625 -18.890625 L 91.875 -18.890625 L 91.875 0 L 16.3125 0 Z M 16.3125 -18.890625 "/></g></g></g><g fill="#5211ba" fill-opacity="1"><g transform="translate(440.518629, 276.54337)"><g><path d="M 35.84375 -18.890625 L 17.171875 -18.890625 L 17.171875 -132.671875 L 35.84375 -132.671875 L 35.84375 -151.5625 L 130.09375 -151.5625 L 130.09375 -113.34375 L 55.390625 -113.34375 L 55.390625 -94.671875 L 130.09375 -94.671875 L 130.09375 -56.890625 L 55.390625 -56.890625 L 55.390625 -38 L 130.09375 -38 L 130.09375 0 L 35.84375 0 Z M 35.84375 -18.890625 "/></g></g><g transform="translate(586.498041, 276.54337)"><g><path d="M 18.03125 -18.890625 L 18.03125 -151.5625 L 56.25 -151.5625 L 56.25 -94.671875 L 74.28125 -94.671875 L 74.28125 -113.5625 L 92.953125 -113.5625 L 92.953125 -132.671875 L 111.625 -132.671875 L 111.625 -151.5625 L 149.84375 -151.5625 L 149.84375 -132.453125 L 130.953125 -132.453125 L 130.953125 -113.34375 L 112.484375 -113.34375 L 112.484375 -94.453125 L 93.59375 -94.453125 L 93.59375 -57.109375 L 112.484375 -57.109375 L 112.484375 -38 L 130.953125 -38 L 130.953125 -19.109375 L 149.84375 -19.109375 L 149.84375 0 L 111.625 0 L 111.625 -18.890625 L 92.953125 -18.890625 L 92.953125 -37.78125 L 74.28125 -37.78125 L 74.28125 -56.890625 L 56.25 -56.890625 L 56.25 0 L 18.03125 0 Z M 18.03125 -18.890625 "/></g></g></g><g fill="#5211ba" fill-opacity="1"><g transform="translate(751.583574, 276.54337)"><g><path d="M 16.75 -18.890625 L 16.75 -38 L 54.09375 -38 L 54.09375 -113.34375 L 16.75 -113.34375 L 16.75 -151.5625 L 129.65625 -151.5625 L 129.65625 -113.34375 L 92.3125 -113.34375 L 92.3125 -38 L 129.65625 -38 L 129.65625 0 L 16.75 0 Z M 16.75 -18.890625 "/></g></g></g></g></g></svg>