<svg xmlns="http://www.w3.org/2000/svg" xmlns:xlink="http://www.w3.org/1999/xlink" width="2000" zoomAndPan="magnify" viewBox="0 0 1500 1499.999933" height="2000" preserveAspectRatio="xMidYMid meet" version="1.0"><defs><clipPath id="d8bc2324bf"><path d="M 63 409 L 1148 409 L 1148 1441 L 63 1441 Z M 63 409 " clip-rule="nonzero"/></clipPath><clipPath id="cddb108d4f"><path d="M 817.578125 25.988281 L 1482.523438 796.644531 L 519.199219 1627.832031 L -145.746094 857.171875 Z M 817.578125 25.988281 " clip-rule="nonzero"/></clipPath><clipPath id="516850db51"><path d="M 427.578125 913.019531 L 63.144531 702.515625 L 1147.972656 409.859375 L 699.574219 1440.121094 L 544.71875 1048.785156 L 252.402344 1301.003906 L 135.261719 1165.238281 Z M 427.578125 913.019531 " clip-rule="evenodd"/></clipPath><clipPath id="7861e7b9c1"><path d="M 611 649.707031 L 854 649.707031 L 854 917 L 611 917 Z M 611 649.707031 " clip-rule="nonzero"/></clipPath><clipPath id="da0871ed09"><path d="M 455.828125 741 L 739 741 L 739 1025 L 455.828125 1025 Z M 455.828125 741 " clip-rule="nonzero"/></clipPath></defs><path fill="#3498db" d="M 427.578125 913.019531 L 63.144531 702.511719 L 1147.972656 409.859375 L 699.574219 1440.121094 L 544.71875 1048.785156 L 252.402344 1301.003906 L 135.261719 1165.238281 Z M 427.578125 913.019531 " fill-opacity="1" fill-rule="evenodd"/><g clip-path="url(#d8bc2324bf)"><g clip-path="url(#cddb108d4f)"><g clip-path="url(#516850db51)"><path fill="#ffffff" d="M 34.8125 1491.136719 C 37.726562 1495.019531 30.8125 1482.230469 29.726562 1477.507812 C 28.066406 1470.710938 27.152344 1464.371094 26.636719 1457.351562 C 24.523438 1429.921875 26.636719 1402.15625 29.667969 1374.890625 C 37.273438 1306.59375 50.132812 1238.570312 65.742188 1171.6875 C 115.304688 958.949219 183.90625 749.039062 255.882812 542.933594 C 273.546875 492.304688 290.871094 440.738281 314.195312 392.339844 C 320.652344 378.914062 333.800781 344.960938 352.726562 341.296875 C 377.648438 336.476562 384.398438 395.558594 386.394531 406.582031 C 400.347656 482.808594 403.777344 561.285156 407.949219 638.488281 C 420.523438 871.300781 426.125 1104.480469 437.675781 1337.359375 C 440.933594 1402.726562 444.191406 1468.105469 448.421875 1533.414062 C 449.164062 1545.125 445.792969 1597.914062 456.539062 1608.46875 C 459.628906 1611.480469 460.371094 1600.648438 461.226562 1596.421875 C 462.371094 1590.613281 463.285156 1584.753906 464.257812 1578.902344 C 469.289062 1547.835938 473.574219 1516.664062 478.664062 1485.597656 C 493.183594 1396 509.707031 1306.695312 528.800781 1217.941406 C 591.914062 924.613281 680.125 633.539062 788.457031 353.726562 C 812.984375 290.308594 837.738281 224.667969 872.4375 165.90625 C 878.785156 155.125 894.675781 124.871094 912.226562 125.847656 C 930.292969 126.847656 936.636719 159.121094 939.382812 170.652344 C 951.84375 222.257812 955.445312 276.355469 959.960938 329.046875 C 981.6875 579.617188 993.976562 830.964844 1013.925781 1081.683594 C 1019.359375 1150.417969 1025.132812 1219.121094 1030.847656 1287.832031 C 1032.90625 1312.722656 1034.164062 1329.308594 1036.394531 1353.625 C 1037.308594 1363.695312 1038.796875 1380.328125 1040.453125 1391.105469 C 1040.910156 1394.265625 1041.941406 1402.761719 1043.710938 1400.113281 C 1057.773438 1379.425781 1053.542969 1326.636719 1055.71875 1303.546875 C 1063.433594 1222.152344 1070.523438 1140.703125 1079.5 1059.433594 C 1107.910156 802.984375 1143.984375 545.140625 1203.609375 293.894531 C 1224.765625 204.660156 1247.289062 114.433594 1280.046875 28.601562 C 1284.734375 16.308594 1308.914062 -58.492188 1333.613281 -47.796875 C 1342.53125 -43.933594 1346.53125 -30.246094 1349.046875 -22.238281 C 1358.023438 6.511719 1361.625 37.421875 1365.511719 67.167969 C 1380.71875 184.59375 1387.0625 303.554688 1391.921875 421.789062 C 1401.925781 665.617188 1394.378906 911.914062 1341.097656 1150.914062 C 1320.632812 1242.847656 1296.394531 1361.8125 1226.878906 1431.839844 C 1196.351562 1462.605469 1150.273438 1468.996094 1111.457031 1484.683594 C 1064.121094 1503.8125 1020.785156 1530.996094 976.652344 1556.292969 C 892.328125 1604.574219 808.636719 1645.609375 711.164062 1657.375 C 689.269531 1660.027344 667.316406 1661.378906 645.25 1661.742188 C 640.964844 1661.8125 627.757812 1664.949219 623.871094 1662.480469 " fill-opacity="0.14" fill-rule="nonzero"/></g></g></g><path fill="#545454" d="M 404.523438 915.210938 L 56.4375 714.128906 C 51.746094 711.417969 49.144531 706.152344 49.859375 700.792969 C 50.558594 695.414062 54.429688 690.988281 59.667969 689.566406 L 1144.472656 396.933594 C 1149.445312 395.59375 1154.757812 397.210938 1158.121094 401.105469 C 1161.480469 405 1162.316406 410.515625 1160.265625 415.234375 L 711.871094 1445.457031 C 709.699219 1450.429688 704.753906 1453.613281 699.347656 1453.535156 C 693.921875 1453.4375 689.097656 1450.09375 687.101562 1445.054688 L 539.171875 1071.269531 L 261.160156 1311.148438 C 255.550781 1315.988281 247.09375 1315.367188 242.257812 1309.757812 L 125.113281 1173.992188 C 120.273438 1168.386719 120.898438 1159.929688 126.507812 1155.089844 Z M 436.351562 923.1875 L 154.183594 1166.652344 L 253.796875 1282.101562 L 535.964844 1038.636719 C 539.238281 1035.8125 543.6875 1034.734375 547.902344 1035.769531 C 552.117188 1036.800781 555.582031 1039.820312 557.191406 1043.847656 L 700.144531 1405.160156 L 1124.53125 430.085938 L 97.8125 707.070312 L 434.285156 901.40625 C 438.035156 903.585938 440.515625 907.457031 440.917969 911.777344 C 441.324219 916.097656 439.625 920.363281 436.351562 923.1875 Z M 436.351562 923.1875 " fill-opacity="1" fill-rule="evenodd"/><path fill="#545454" d="M 947.996094 116.152344 C 947.277344 107.472656 954.257812 98.355469 963.550781 95.792969 C 972.839844 93.234375 980.984375 98.195312 981.703125 106.875 L 995.882812 279.3125 C 996.601562 287.988281 989.621094 297.105469 980.328125 299.667969 C 971.023438 302.214844 962.914062 297.25 962.195312 288.570312 Z M 947.996094 116.152344 " fill-opacity="1" fill-rule="evenodd"/><path fill="#545454" d="M 1423.359375 618.746094 C 1431.835938 620.726562 1435.550781 629.511719 1431.660156 638.328125 C 1427.765625 647.144531 1417.722656 652.714844 1409.242188 650.734375 L 1240.761719 611.429688 C 1232.285156 609.449219 1228.5625 600.699219 1232.441406 591.867188 C 1236.335938 583.050781 1246.378906 577.480469 1254.855469 579.460938 Z M 1423.359375 618.746094 " fill-opacity="1" fill-rule="evenodd"/><path fill="#545454" d="M 1174.894531 105.757812 C 1178.628906 96.894531 1188.609375 91.179688 1197.148438 92.992188 C 1205.6875 94.800781 1209.605469 103.46875 1205.867188 112.335938 L 1131.546875 288.453125 C 1127.8125 297.316406 1117.832031 303.03125 1109.292969 301.21875 C 1100.746094 299.386719 1096.863281 290.734375 1100.597656 281.867188 Z M 1174.894531 105.757812 " fill-opacity="1" fill-rule="evenodd"/><path fill="#545454" d="M 1450.8125 396.164062 C 1460.128906 393.765625 1468.132812 398.910156 1468.671875 407.625 C 1469.210938 416.339844 1462.097656 425.371094 1452.78125 427.769531 L 1267.6875 475.46875 C 1258.371094 477.867188 1250.378906 472.753906 1249.820312 464.03125 C 1249.28125 455.320312 1256.390625 446.285156 1265.710938 443.886719 Z M 1450.8125 396.164062 " fill-opacity="1" fill-rule="evenodd"/><path fill="#545454" d="M 1367.921875 201.207031 C 1375.609375 194.636719 1386.140625 194.363281 1391.425781 200.574219 C 1396.707031 206.789062 1394.765625 217.175781 1387.078125 223.746094 L 1234.273438 354.257812 C 1226.582031 360.828125 1216.050781 361.101562 1210.769531 354.886719 C 1205.496094 348.652344 1207.449219 338.292969 1215.140625 331.722656 Z M 1367.921875 201.207031 " fill-opacity="1" fill-rule="evenodd"/><path fill="#ffffff" d="M 827.347656 549.925781 C 835.214844 547.691406 843.425781 552.28125 845.671875 560.125 C 847.910156 568.011719 843.332031 576.222656 835.46875 578.457031 L 526.457031 666.25 C 518.59375 668.484375 510.378906 663.898438 508.132812 656.050781 C 505.894531 648.167969 510.472656 639.953125 518.339844 637.71875 Z M 827.347656 549.925781 " fill-opacity="1" fill-rule="evenodd"/><path fill="#ffffff" d="M 482.484375 678.367188 C 481.710938 679.035156 480.878906 679.621094 479.992188 680.125 C 479.101562 680.628906 478.171875 681.039062 477.203125 681.359375 C 476.230469 681.679688 475.242188 681.902344 474.226562 682.03125 C 473.210938 682.15625 472.195312 682.179688 471.175781 682.105469 C 470.15625 682.03125 469.15625 681.855469 468.171875 681.582031 C 467.1875 681.3125 466.238281 680.945312 465.324219 680.484375 C 464.414062 680.027344 463.554688 679.484375 462.746094 678.855469 C 461.941406 678.226562 461.207031 677.523438 460.539062 676.75 C 459.871094 675.976562 459.285156 675.148438 458.78125 674.257812 C 458.277344 673.367188 457.867188 672.4375 457.542969 671.46875 C 457.222656 670.5 457 669.507812 456.875 668.492188 C 456.75 667.480469 456.726562 666.460938 456.800781 665.445312 C 456.875 664.425781 457.050781 663.421875 457.320312 662.4375 C 457.59375 661.453125 457.960938 660.503906 458.417969 659.589844 C 458.878906 658.679688 459.421875 657.820312 460.050781 657.015625 C 460.679688 656.207031 461.378906 655.472656 462.152344 654.804688 C 462.929688 654.136719 463.757812 653.550781 464.648438 653.046875 C 465.535156 652.542969 466.464844 652.132812 467.4375 651.8125 C 468.40625 651.492188 469.398438 651.269531 470.414062 651.144531 C 471.425781 651.019531 472.441406 650.992188 473.460938 651.066406 C 474.480469 651.144531 475.484375 651.316406 476.46875 651.589844 C 477.453125 651.859375 478.402344 652.226562 479.3125 652.6875 C 480.226562 653.144531 481.085938 653.691406 481.890625 654.316406 C 482.695312 654.945312 483.433594 655.648438 484.101562 656.421875 C 484.769531 657.195312 485.355469 658.027344 485.855469 658.914062 C 486.359375 659.804688 486.773438 660.734375 487.09375 661.703125 C 487.414062 662.671875 487.636719 663.664062 487.761719 664.679688 C 487.886719 665.695312 487.914062 666.710938 487.835938 667.730469 C 487.761719 668.746094 487.589844 669.75 487.316406 670.734375 C 487.042969 671.71875 486.679688 672.667969 486.21875 673.582031 C 485.761719 674.492188 485.214844 675.351562 484.585938 676.15625 C 483.960938 676.964844 483.257812 677.699219 482.484375 678.367188 Z M 482.484375 678.367188 " fill-opacity="1" fill-rule="nonzero"/><g clip-path="url(#7861e7b9c1)"><path fill="#545454" d="M 842.363281 756.480469 L 817.941406 752.917969 C 814.800781 745.421875 814.003906 743.453125 810.863281 736.371094 L 825.441406 716.683594 C 829.378906 711.574219 829 704.078125 824.265625 699.34375 L 804.578125 679.238281 C 799.847656 674.503906 792.769531 674.128906 787.238281 678.066406 L 767.550781 692.640625 C 760.054688 689.5 758.085938 688.703125 751.003906 685.5625 L 747.402344 661.140625 C 746.609375 654.441406 741.121094 649.707031 734.417969 649.707031 L 706.058594 649.707031 C 699.359375 649.707031 693.828125 654.441406 693.074219 661.140625 L 689.515625 685.5625 C 682.015625 688.703125 680.046875 689.5 672.96875 692.640625 L 653.28125 678.066406 C 648.171875 674.128906 640.671875 674.503906 635.941406 679.238281 L 615.835938 699.34375 C 611.101562 704.078125 610.722656 711.15625 614.660156 716.683594 L 622.957031 727.703125 C 641.09375 735.996094 657.636719 748.183594 670.246094 763.179688 C 678.121094 743.492188 697.429688 729.671875 719.882812 729.671875 C 749.832031 729.671875 773.875 753.714844 773.875 783.664062 C 773.875 813.195312 749.832031 837.65625 719.882812 837.65625 C 713.601562 837.65625 708.070312 836.484375 702.542969 834.515625 C 703.335938 840.421875 703.714844 846.746094 703.714844 852.652344 C 703.714844 871.167969 700.152344 888.886719 693.074219 905.851562 C 694.246094 912.132812 699.359375 916.867188 706.058594 916.867188 L 734.417969 916.867188 C 741.121094 916.867188 746.648438 912.132812 747.402344 905.429688 L 750.964844 881.011719 C 758.460938 877.867188 760.429688 877.074219 767.507812 873.929688 L 787.195312 888.507812 C 792.308594 892.445312 799.804688 892.070312 804.539062 887.335938 L 824.644531 867.230469 C 829.378906 862.496094 829.753906 855.417969 825.816406 849.886719 L 811.238281 830.199219 C 814.382812 822.703125 815.175781 820.734375 817.941406 813.65625 L 842.363281 810.09375 C 848.644531 809.300781 853.796875 803.8125 853.796875 797.109375 L 853.796875 768.75 C 853.796875 762.804688 848.6875 757.273438 842.363281 756.480469 Z M 842.363281 756.480469 " fill-opacity="1" fill-rule="nonzero"/></g><g clip-path="url(#da0871ed09)"><path fill="#545454" d="M 657.597656 915.652344 C 670.203125 897.933594 677.285156 875.859375 677.285156 852.609375 C 677.285156 791.539062 627.648438 741.902344 566.574219 741.902344 C 505.503906 741.902344 455.867188 791.582031 455.867188 852.609375 C 455.867188 913.640625 505.921875 963.320312 566.953125 963.320312 C 590.199219 963.320312 612.273438 955.820312 629.992188 943.632812 L 695.378906 1016.140625 C 704.84375 1026.78125 721.390625 1027.15625 731.613281 1016.9375 C 741.875 1006.671875 741.078125 990.546875 730.816406 980.703125 Z M 566.953125 934.960938 C 521.628906 934.960938 484.601562 897.933594 484.601562 852.609375 C 484.222656 807.332031 521.253906 770.300781 566.953125 770.300781 C 612.652344 770.300781 649.300781 807.332031 649.300781 852.609375 C 649.300781 897.890625 612.273438 934.960938 566.953125 934.960938 Z M 566.953125 934.960938 " fill-opacity="1" fill-rule="nonzero"/></g><path fill="#545454" d="M 566.953125 793.550781 C 559.078125 793.550781 552.75 799.832031 552.75 807.75 C 552.75 815.625 559.035156 821.949219 566.953125 821.949219 C 583.875 821.949219 597.695312 835.730469 597.695312 852.695312 C 597.695312 860.570312 603.980469 866.894531 611.898438 866.894531 C 619.773438 866.894531 626.097656 860.609375 626.097656 852.695312 C 625.679688 819.9375 599.289062 793.550781 566.953125 793.550781 Z M 566.953125 793.550781 " fill-opacity="1" fill-rule="nonzero"/></svg>